<?xml version="1.0" encoding="UTF-8"?>
<!DOCTYPE svg PUBLIC "-//W3C//DTD SVG 1.1//EN" "http://www.w3.org/Graphics/SVG/1.1/DTD/svg11.dtd">
<!-- Creator: CorelDRAW X8 -->
<svg xmlns="http://www.w3.org/2000/svg" xml:space="preserve" width="1500px" height="354px" version="1.1" style="shape-rendering:geometricPrecision; text-rendering:geometricPrecision; image-rendering:optimizeQuality; fill-rule:evenodd; clip-rule:evenodd"
viewBox="0 0 1500 354"
 xmlns:xlink="http://www.w3.org/1999/xlink">
 <defs>
  <style type="text/css">
   <![CDATA[
    .fil0 {fill:#6E37B6;fill-rule:nonzero}
    .fil1 {fill:#FF5722;fill-rule:nonzero}
    .fil3 {fill:url(#id0)}
    .fil2 {fill:url(#id1)}
   ]]>
  </style>
  <linearGradient id="id0" gradientUnits="userSpaceOnUse" x1="34.2413" y1="281.979" x2="320.145" y2="72.0189">
   <stop offset="0" style="stop-opacity:1; stop-color:#673AB7"/>
   <stop offset="0.490196" style="stop-opacity:1; stop-color:#9C27B0"/>
   <stop offset="1" style="stop-opacity:1; stop-color:#E15722"/>
  </linearGradient>
  <linearGradient id="id1" gradientUnits="userSpaceOnUse" xlink:href="#id0" x1="74.8713" y1="252.141" x2="279.514" y2="101.856">
  </linearGradient>
 </defs>
 <g id="Layer_x0020_1">
  <metadata id="CorelCorpID_0Corel-Layer"/>
  <path class="fil0" d="M400 99l0 57 16 0c2,0 4,0 6,-1 1,0 3,-1 4,-2 1,-1 2,-2 3,-4 0,-1 1,-3 1,-6 0,-2 -1,-4 -1,-5 -1,-2 -2,-3 -3,-4 -1,0 -2,-1 -4,-1 -2,-1 -3,-1 -5,-1l-12 0 0 -13 12 0c4,0 8,0 12,1 3,1 7,3 9,5 3,2 5,4 7,7 1,3 2,7 2,11 0,4 -1,8 -2,11 -2,3 -4,6 -7,8 -2,2 -6,4 -9,5 -4,2 -8,2 -13,2l-33 0 0 -84 57 0 0 14 -40 0zm115 70c-1,-4 -2,-8 -3,-12 -1,-4 -2,-8 -3,-12l-32 0c-2,4 -3,7 -4,11 -1,4 -2,9 -3,13l-17 0c2,-8 3,-15 5,-22 2,-7 5,-14 7,-20 3,-7 6,-14 9,-21 3,-7 6,-14 10,-21l17 0c4,7 7,14 10,21 3,7 6,14 9,20 3,7 5,14 7,21 2,7 4,15 5,22l-17 0zm-10 -37c-1,-2 -2,-5 -3,-7 -1,-3 -2,-5 -3,-7 -1,-3 -2,-5 -3,-7 -1,-3 -2,-5 -4,-8 -2,5 -4,10 -6,15 -2,5 -4,10 -5,14l24 0zm35 37l0 -84 17 0 0 34 35 0 0 -34 16 0 0 84 -16 0 0 -37 -35 0 0 37 -17 0zm84 0l0 -84 17 0 0 31c4,-2 7,-4 10,-6 3,-2 6,-5 8,-7 3,-3 5,-6 7,-9 3,-3 5,-6 7,-9l21 0c-2,4 -5,8 -8,12 -3,3 -6,7 -9,10 -3,4 -7,7 -10,10 -4,2 -7,5 -11,7 3,2 6,3 8,5 3,2 6,4 8,7 3,2 5,5 8,8 2,3 4,5 6,8 2,3 4,6 6,9 2,3 4,6 5,8l-19 0c-4,-6 -8,-12 -12,-16 -3,-4 -6,-8 -9,-11 -3,-3 -6,-5 -8,-6 -3,-2 -5,-3 -8,-3l0 36 -17 0zm192 -30c0,4 -2,7 -4,11 -2,4 -5,7 -8,10 -3,3 -7,6 -11,8 -5,2 -10,3 -16,3 -5,0 -11,-1 -16,-4 -5,-2 -9,-5 -13,-8 -3,-4 -6,-9 -8,-14 -3,-6 -4,-12 -4,-18 0,-6 1,-12 3,-17 2,-5 4,-10 8,-14 3,-3 8,-7 13,-9 4,-2 10,-3 17,-3 5,0 9,0 13,2 4,1 8,3 11,5 3,2 6,5 8,9 2,3 4,7 5,11l-17 0c-2,-5 -5,-8 -8,-11 -4,-2 -8,-3 -13,-3 -2,0 -5,0 -7,1 -2,1 -4,2 -6,3 -1,2 -3,3 -4,5 -1,2 -2,4 -3,6 -1,2 -2,5 -2,7 0,3 0,5 0,8 0,5 0,9 1,13 2,4 3,7 5,10 3,2 5,4 8,6 3,1 6,2 9,2 3,0 6,-1 8,-2 3,-1 5,-2 6,-4 2,-1 4,-3 5,-6 1,-2 2,-4 3,-7l17 0zm29 30l0 -70 -26 0 0 -14 69 0 0 14 -26 0 0 70 -17 0zm97 0c-1,-4 -2,-8 -3,-12 -1,-4 -2,-8 -4,-12l-32 0c-1,4 -2,7 -3,11 -1,4 -2,9 -3,13l-17 0c1,-8 3,-15 5,-22 2,-7 4,-14 7,-20 2,-7 5,-14 8,-21 3,-7 7,-14 11,-21l16 0c4,7 8,14 11,21 3,7 6,14 9,20 2,7 4,14 7,21 2,7 3,15 5,22l-17 0zm-11 -37c-1,-2 -2,-5 -3,-7 -1,-3 -2,-5 -2,-7 -1,-3 -2,-5 -3,-7 -1,-3 -3,-5 -4,-8 -2,5 -5,10 -6,15 -2,5 -4,10 -6,14l24 0zm45 37l0 -70 -26 0 0 -14 68 0 0 14 -26 0 0 70 -16 0zm51 -84l16 0 0 55c3,-4 6,-9 9,-14 3,-4 6,-9 9,-13 3,-5 5,-10 8,-14 3,-5 6,-9 9,-14l17 0 0 84 -17 0 0 -55c-6,9 -12,19 -18,28 -6,9 -11,18 -17,27l-16 0 0 -84zm160 54c-1,4 -2,7 -4,11 -2,4 -5,7 -8,10 -3,3 -7,6 -11,8 -5,2 -10,3 -16,3 -5,0 -11,-1 -16,-4 -5,-2 -9,-5 -13,-8 -3,-4 -6,-9 -9,-14 -2,-6 -3,-12 -3,-18 0,-6 1,-12 3,-17 2,-5 4,-10 8,-14 3,-3 7,-7 12,-9 5,-2 11,-3 17,-3 5,0 10,0 14,2 4,1 8,3 11,5 3,2 5,5 8,9 2,3 4,7 5,11l-17 0c-2,-5 -5,-8 -8,-11 -4,-2 -8,-3 -13,-3 -2,0 -5,0 -7,1 -2,1 -4,2 -6,3 -1,2 -3,3 -4,5 -1,2 -2,4 -3,6 -1,2 -2,5 -2,7 0,3 -1,5 -1,8 0,5 1,9 2,13 1,4 3,7 5,10 2,2 5,4 8,6 3,1 6,2 9,2 3,0 6,-1 8,-2 2,-1 4,-2 6,-4 2,-1 3,-3 5,-6 1,-2 2,-4 2,-7l18 0zm29 30l0 -70 -26 0 0 -14 69 0 0 14 -26 0 0 70 -17 0zm51 -84l17 0 0 55c2,-4 5,-9 8,-14 3,-4 6,-9 9,-13 3,-5 6,-10 8,-14 3,-5 6,-9 9,-14l17 0 0 84 -17 0 0 -55c-6,9 -12,19 -18,28 -5,9 -11,18 -17,27l-16 0 0 -84zm84 84l0 -84 17 0 0 31c3,-2 6,-4 9,-6 3,-2 6,-5 9,-7 2,-3 5,-6 7,-9 2,-3 4,-6 6,-9l22 0c-3,4 -6,8 -9,12 -3,3 -6,7 -9,10 -3,4 -6,7 -10,10 -3,2 -7,5 -11,7 3,2 6,3 9,5 3,2 5,4 8,7 2,2 5,5 7,8 2,3 4,5 7,8 2,3 4,6 5,9 2,3 4,6 6,8l-20 0c-4,-6 -8,-12 -11,-16 -4,-4 -7,-8 -10,-11 -3,-3 -5,-5 -8,-6 -3,-2 -5,-3 -7,-3l0 36 -17 0zm81 -84l17 0 0 55c3,-4 5,-9 8,-14 3,-4 6,-9 9,-13 3,-5 6,-10 9,-14 3,-5 5,-9 8,-14l17 0 0 84 -17 0 0 -55c-6,9 -12,19 -17,28 -6,9 -12,18 -18,27l-16 0 0 -84z"/>
  <path class="fil1" d="M415 213c0,-3 -1,-5 -3,-7 -2,-1 -5,-2 -9,-2 -3,0 -6,1 -8,2 -2,2 -3,4 -3,7l-8 0c0,-3 1,-5 3,-8 1,-2 3,-4 6,-5 3,-2 7,-2 10,-2 6,0 11,1 15,4 3,3 5,7 5,12 0,2 -1,4 -3,7 -1,2 -3,3 -6,5 6,2 10,6 10,13 0,5 -2,9 -6,12 -4,3 -9,4 -15,4 -4,0 -7,-1 -10,-2 -3,-1 -5,-3 -7,-6 -2,-2 -3,-5 -3,-8l8 0c0,3 1,5 3,7 3,2 5,3 9,3 4,0 7,-1 10,-3 2,-2 3,-4 3,-7 0,-7 -4,-10 -12,-10l-7 0 0 -6 7 0c4,0 7,-1 9,-3 1,-1 2,-4 2,-7zm43 41c-1,-1 -1,-2 -1,-4 -3,3 -7,5 -12,5 -4,0 -7,-1 -10,-3 -3,-3 -4,-6 -4,-9 0,-5 2,-8 5,-10 3,-3 8,-4 14,-4l7 0 0 -3c0,-3 -1,-5 -2,-6 -2,-1 -4,-2 -7,-2 -3,0 -5,0 -6,2 -2,1 -3,3 -3,4l-7 0c0,-2 1,-4 2,-6 2,-2 4,-3 6,-4 3,-1 5,-2 8,-2 5,0 9,1 12,4 2,2 4,5 4,9l0 20c0,3 0,6 1,9l0 0 -7 0zm-12 -5c2,0 4,-1 6,-2 2,-1 4,-2 5,-4l0 -9 -6 0c-9,0 -13,3 -13,8 0,2 1,4 2,5 2,1 4,2 6,2zm47 -34c5,0 10,2 13,5 3,4 4,9 4,14l0 1c0,4 0,7 -2,10 -1,3 -4,6 -6,8 -3,1 -6,2 -10,2 -6,0 -10,-2 -14,-6 -3,-3 -5,-8 -5,-14l0 -4c0,-9 2,-16 5,-21 3,-5 8,-8 14,-9 4,-1 6,-2 8,-2 1,-1 2,-3 2,-4l5 0c0,3 0,5 -2,7 -1,2 -4,3 -7,4l-5 1c-4,1 -7,3 -9,5 -3,3 -4,6 -5,10 4,-5 9,-7 14,-7zm-1 6c-4,0 -6,1 -9,4 -2,2 -3,5 -3,9l0 1c0,4 1,8 4,10 2,3 4,4 8,4 3,0 6,-1 8,-4 2,-2 3,-6 3,-11 0,-4 -1,-7 -3,-9 -2,-3 -5,-4 -8,-4zm52 33c0,-1 -1,-2 -1,-4 -3,3 -7,5 -12,5 -4,0 -7,-1 -10,-3 -3,-3 -4,-6 -4,-9 0,-5 2,-8 5,-10 3,-3 8,-4 14,-4l7 0 0 -3c0,-3 -1,-5 -2,-6 -2,-1 -4,-2 -7,-2 -3,0 -5,0 -6,2 -2,1 -3,3 -3,4l-7 0c0,-2 1,-4 2,-6 2,-2 4,-3 6,-4 3,-1 5,-2 8,-2 5,0 9,1 12,4 2,2 4,5 4,9l0 20c0,3 0,6 1,9l0 0 -7 0zm-12 -5c2,0 4,-1 6,-2 2,-1 4,-2 5,-4l0 -9 -6 0c-8,0 -13,3 -13,8 0,2 1,4 2,5 2,1 4,2 6,2zm56 -36l7 0 0 41 -7 0 0 -30 -19 30 -7 0 0 -41 7 0 0 30 19 -30zm2 -15c0,3 -1,5 -3,7 -3,2 -5,3 -9,3 -3,0 -6,-1 -8,-3 -2,-2 -3,-4 -3,-7l6 0c0,1 0,3 1,4 1,1 2,1 4,1 2,0 3,0 4,-1 2,-1 2,-3 2,-4l6 0zm29 39l-5 0 0 17 -7 0 0 -41 7 0 0 17 5 0 14 -17 8 0 -16 20 18 21 -9 0 -15 -17zm55 17c0,-1 0,-2 -1,-4 -3,3 -7,5 -11,5 -5,0 -8,-1 -11,-3 -2,-3 -3,-6 -3,-9 0,-5 1,-8 4,-10 4,-3 8,-4 14,-4l7 0 0 -3c0,-3 -1,-5 -2,-6 -2,-1 -4,-2 -7,-2 -2,0 -4,0 -6,2 -2,1 -3,3 -3,4l-7 0c0,-2 1,-4 3,-6 1,-2 3,-3 6,-4 2,-1 5,-2 8,-2 5,0 8,1 11,4 3,2 4,5 4,9l0 20c0,3 1,6 2,9l0 0 -8 0zm-11 -5c2,0 4,-1 6,-2 2,-1 3,-2 4,-4l0 -9 -5 0c-9,0 -13,3 -13,8 0,2 0,4 2,5 1,1 3,2 6,2zm62 -36l0 41 -7 0 0 -35 -14 0 -1 15c0,7 -1,12 -3,15 -2,4 -5,5 -9,5l-3 0 0 -6 2 0c2,0 4,-2 5,-4 1,-3 1,-7 2,-13l0 -18 28 0zm20 14l10 0c5,0 9,1 11,4 3,2 5,5 5,10 0,4 -2,7 -5,10 -2,2 -6,3 -11,3l-18 0 0 -41 8 0 0 14zm0 6l0 15 10 0c3,0 5,0 6,-2 2,-1 2,-3 2,-5 0,-2 0,-4 -2,-6 -1,-1 -3,-2 -6,-2l-10 0zm51 16c3,0 5,-1 7,-2 2,-2 3,-3 3,-6l7 0c-1,3 -1,5 -3,7 -1,2 -3,4 -6,5 -2,1 -5,2 -8,2 -6,0 -10,-2 -13,-6 -4,-3 -5,-9 -5,-15l0 -1c0,-4 0,-8 2,-11 1,-3 3,-6 6,-7 3,-2 6,-3 10,-3 5,0 8,1 12,4 3,3 4,7 5,11l-7 0c0,-3 -1,-5 -3,-7 -2,-1 -4,-2 -7,-2 -4,0 -6,1 -8,4 -2,2 -3,6 -3,11l0 1c0,5 1,9 3,11 2,3 4,4 8,4zm37 -12l-5 0 0 17 -7 0 0 -41 7 0 0 17 5 0 14 -17 8 0 -16 20 18 21 -9 0 -15 -17zm57 -24l7 0 0 41 -7 0 0 -30 -19 30 -8 0 0 -41 8 0 0 30 19 -30zm45 0l7 0 0 41 -7 0 0 -30 -19 30 -7 0 0 -41 7 0 0 30 19 -30zm2 -15c0,3 -1,5 -3,7 -2,2 -5,3 -9,3 -3,0 -6,-1 -8,-3 -2,-2 -3,-4 -3,-7l6 0c0,1 0,3 1,4 1,1 3,1 4,1 2,0 4,0 5,-1 1,-1 1,-3 1,-4l6 0zm49 39l-5 0 0 17 -7 0 0 -41 7 0 0 17 4 0 14 -17 9 0 -17 20 18 21 -9 0 -14 -17zm64 -3c0,6 -1,11 -4,15 -3,4 -7,6 -12,6 -5,0 -9,-2 -12,-5l0 20 -7 0 0 -57 7 0 0 4c3,-3 7,-5 12,-5 5,0 9,2 12,6 3,3 4,9 4,15l0 1zm-7 -1c0,-4 -1,-8 -3,-11 -2,-3 -4,-4 -8,-4 -4,0 -7,2 -10,6l0 20c3,3 6,5 10,5 4,0 6,-1 8,-4 2,-2 3,-6 3,-12zm42 21c0,-1 -1,-2 -1,-4 -3,3 -7,5 -12,5 -4,0 -7,-1 -10,-3 -3,-3 -4,-6 -4,-9 0,-5 2,-8 5,-10 3,-3 8,-4 14,-4l7 0 0 -3c0,-3 -1,-5 -2,-6 -2,-1 -4,-2 -7,-2 -2,0 -5,0 -6,2 -2,1 -3,3 -3,4l-7 0c0,-2 1,-4 2,-6 2,-2 4,-3 6,-4 3,-1 5,-2 8,-2 5,0 9,1 12,4 2,2 4,5 4,9l0 20c0,3 0,6 1,9l0 0 -7 0zm-12 -5c2,0 5,-1 6,-2 3,-1 4,-2 5,-4l0 -9 -6 0c-8,0 -13,3 -13,8 0,2 1,4 2,5 2,1 4,2 6,2zm56 -36l7 0 0 41 -7 0 0 -30 -19 30 -7 0 0 -41 7 0 0 30 19 -30zm2 -15c0,3 -1,5 -3,7 -2,2 -5,3 -9,3 -3,0 -6,-1 -8,-3 -2,-2 -3,-4 -3,-7l6 0c0,1 0,3 1,4 1,1 2,1 4,1 2,0 4,0 5,-1 1,-1 1,-3 1,-4l6 0z"/>
  <path class="fil2" d="M177 50c70,0 127,57 127,127 0,70 -57,127 -127,127 -70,0 -127,-57 -127,-127 0,-70 57,-127 127,-127zm-53 184l107 0c2,0 3,-1 3,-3l0 0c0,-2 -1,-3 -3,-3l-107 0c-2,0 -4,1 -4,3l0 0c0,2 2,3 4,3zm83 -114l26 0c1,0 1,0 1,1l0 97c0,1 0,1 -1,1l-26 0c-1,0 -1,0 -1,-1l0 -97c0,-1 0,-1 1,-1zm-43 25l26 0c1,0 1,0 1,1l0 72c0,1 0,1 -1,1l-26 0c-1,0 -1,0 -1,-1l0 -72c0,-1 0,-1 1,-1zm-43 33l27 0c0,0 1,0 1,1l0 39c0,1 -1,1 -1,1l-27 0c0,0 -1,0 -1,-1l0 -39c0,-1 1,-1 1,-1z"/>
  <path class="fil3" d="M185 0c43,2 82,19 112,46l-20 20c-25,-22 -57,-36 -92,-38l0 -28zm123 58c27,29 44,68 46,111l-28 0c-2,-35 -16,-67 -38,-91l20 -20zm46 127c-2,43 -19,82 -46,111l-20 -20c22,-24 36,-56 38,-91l28 0zm-57 123c-30,27 -69,44 -112,46l0 -28c35,-2 67,-16 92,-38l20 20zm-128 46c-43,-2 -82,-19 -111,-46l20 -20c24,22 56,36 91,38l0 28zm-123 -58c-27,-29 -44,-68 -46,-111l28 0c2,35 16,67 38,91l-20 20zm-46 -127c2,-43 19,-82 46,-112l20 21c-22,24 -36,56 -38,91l-28 0zm58 -123c29,-27 68,-44 111,-46l0 28c-35,2 -67,16 -91,38l-20 -20z"/>
 </g>
</svg>
