<?xml version="1.0" encoding="UTF-8"?>
<!DOCTYPE svg PUBLIC "-//W3C//DTD SVG 1.1//EN" "http://www.w3.org/Graphics/SVG/1.1/DTD/svg11.dtd">
<!-- Creator: CorelDRAW X8 -->
<svg xmlns="http://www.w3.org/2000/svg" xml:space="preserve" width="1500px" height="240px" version="1.1" style="shape-rendering:geometricPrecision; text-rendering:geometricPrecision; image-rendering:optimizeQuality; fill-rule:evenodd; clip-rule:evenodd"
viewBox="0 0 1500 240"
 xmlns:xlink="http://www.w3.org/1999/xlink">
 <defs>
  <style type="text/css">
   <![CDATA[
    .fil0 {fill:#6E37B6;fill-rule:nonzero}
    .fil1 {fill:#FF5722;fill-rule:nonzero}
    .fil3 {fill:url(#id0)}
    .fil2 {fill:url(#id1)}
   ]]>
  </style>
  <linearGradient id="id0" gradientUnits="userSpaceOnUse" x1="23.1815" y1="191.114" x2="216.856" y2="48.8835">
   <stop offset="0" style="stop-opacity:1; stop-color:#673AB7"/>
   <stop offset="0.490196" style="stop-opacity:1; stop-color:#9C27B0"/>
   <stop offset="1" style="stop-opacity:1; stop-color:#E15722"/>
  </linearGradient>
  <linearGradient id="id1" gradientUnits="userSpaceOnUse" xlink:href="#id0" x1="50.7059" y1="170.901" x2="189.333" y2="69.0957">
  </linearGradient>
 </defs>
 <g id="Layer_x0020_1">
  <metadata id="CorelCorpID_0Corel-Layer"/>
  <g id="_1758410989872">
   <g>
    <path class="fil0" d="M286 33l0 64 18 0c2,0 4,-1 6,-1 2,-1 3,-1 5,-2 1,-2 2,-3 3,-5 0,-1 1,-3 1,-6 0,-3 -1,-5 -1,-6 -1,-2 -2,-3 -3,-4 -1,-1 -3,-2 -5,-2 -1,0 -3,0 -5,0l-13 0 0 -15 12 0c5,0 10,0 14,1 4,1 7,3 10,5 3,3 6,5 7,9 2,3 3,7 3,11 0,5 -1,9 -3,12 -1,4 -4,7 -7,10 -3,2 -6,4 -10,5 -5,2 -9,2 -14,2l-36 0 0 -92 63 0 0 14 -45 0zm127 78c-1,-4 -2,-9 -3,-13 -1,-5 -3,-9 -4,-13l-36 0c-1,4 -2,8 -3,12 -2,5 -3,9 -4,14l-19 0c2,-8 4,-16 6,-24 3,-8 5,-15 8,-23 3,-7 6,-15 9,-22 4,-8 8,-15 12,-23l18 0c4,8 8,15 12,23 3,7 6,15 9,22 3,8 6,15 8,23 2,8 4,16 6,24l-19 0zm-12 -40c-1,-3 -2,-6 -3,-9 -1,-2 -2,-5 -3,-8 -1,-2 -2,-5 -3,-7 -1,-3 -3,-5 -4,-8 -3,5 -5,11 -7,16 -2,5 -4,10 -6,16l26 0zm40 40l0 -92 19 0 0 37 37 0 0 -37 19 0 0 92 -19 0 0 -40 -37 0 0 40 -19 0zm93 0l0 -92 18 0 0 33c4,-1 8,-3 11,-6 3,-2 6,-5 9,-8 3,-3 6,-6 8,-9 2,-3 5,-7 7,-10l24 0c-3,4 -6,8 -9,12 -4,4 -7,8 -10,12 -4,4 -8,7 -11,10 -4,4 -8,6 -13,9 4,1 7,3 10,5 3,2 6,5 9,8 2,2 5,5 8,8 2,3 5,7 7,10 2,3 4,6 6,9 2,4 4,7 6,9l-22 0c-4,-7 -8,-13 -12,-17 -4,-5 -7,-9 -11,-12 -3,-3 -6,-6 -9,-7 -2,-2 -5,-3 -8,-4l0 40 -18 0zm212 -33c-1,4 -3,8 -5,12 -2,4 -5,8 -9,12 -3,3 -8,6 -13,8 -5,2 -10,3 -17,3 -6,0 -12,-1 -17,-4 -6,-2 -10,-5 -14,-9 -5,-4 -8,-10 -10,-16 -3,-5 -4,-12 -4,-20 0,-6 1,-12 3,-18 2,-6 5,-11 9,-15 4,-4 8,-8 14,-10 5,-3 12,-4 19,-4 5,0 10,1 15,2 4,2 8,4 11,6 4,3 7,6 9,10 3,3 5,8 6,12l-19 0c-2,-5 -5,-9 -9,-11 -4,-3 -8,-4 -14,-4 -3,0 -5,0 -8,1 -2,1 -4,2 -6,3 -2,2 -3,4 -5,6 -1,2 -2,4 -3,6 -1,3 -2,5 -2,8 -1,3 -1,6 -1,8 0,6 1,11 2,15 2,4 3,8 6,11 2,3 5,5 8,6 3,2 7,3 10,3 4,0 7,-1 9,-2 3,-1 5,-2 7,-4 2,-2 4,-4 5,-7 1,-2 2,-5 3,-8l20 0zm31 33l0 -78 -29 0 0 -14 76 0 0 14 -28 0 0 78 -19 0zm107 0c-1,-4 -2,-9 -3,-13 -1,-5 -3,-9 -4,-13l-36 0c-1,4 -2,8 -4,12 -1,5 -2,9 -3,14l-19 0c2,-8 4,-16 6,-24 3,-8 5,-15 8,-23 3,-7 6,-15 9,-22 4,-8 7,-15 12,-23l18 0c4,8 8,15 12,23 3,7 6,15 9,22 3,8 6,15 8,23 2,8 4,16 6,24l-19 0zm-12 -40c-1,-3 -2,-6 -3,-9 -1,-2 -2,-5 -3,-8 -1,-2 -2,-5 -3,-7 -1,-3 -3,-5 -4,-8 -3,5 -5,11 -7,16 -2,5 -4,10 -6,16l26 0zm49 40l0 -78 -28 0 0 -14 75 0 0 14 -28 0 0 78 -19 0zm57 -92l18 0 0 60c3,-5 6,-10 9,-15 4,-5 7,-10 10,-15 3,-5 6,-10 10,-16 3,-5 6,-10 9,-14l19 0 0 92 -19 0 0 -60c-6,10 -13,20 -19,30 -7,10 -13,20 -20,30l-17 0 0 -92zm177 59c-1,4 -3,8 -5,12 -2,4 -5,8 -9,12 -3,3 -7,6 -12,8 -5,2 -11,3 -17,3 -6,0 -12,-1 -18,-4 -5,-2 -10,-5 -14,-9 -4,-4 -8,-10 -10,-16 -2,-5 -3,-12 -3,-20 0,-6 1,-12 2,-18 2,-6 5,-11 9,-15 4,-4 9,-8 14,-10 6,-3 12,-4 19,-4 5,0 10,1 15,2 4,2 8,4 12,6 3,3 6,6 9,10 2,3 4,8 6,12l-19 0c-3,-5 -6,-9 -10,-11 -4,-3 -8,-4 -13,-4 -3,0 -6,0 -8,1 -3,1 -5,2 -7,3 -2,2 -3,4 -5,6 -1,2 -2,4 -3,6 -1,3 -1,5 -2,8 0,3 -1,6 -1,8 0,6 1,11 3,15 1,4 3,8 5,11 2,3 5,5 8,6 4,2 7,3 11,3 3,0 6,-1 8,-2 3,-1 5,-2 7,-4 2,-2 4,-4 5,-7 1,-2 2,-5 3,-8l20 0zm31 33l0 -78 -28 0 0 -14 76 0 0 14 -29 0 0 78 -19 0zm57 -92l18 0 0 60c3,-5 6,-10 10,-15 3,-5 6,-10 9,-15 3,-5 7,-10 10,-16 3,-5 6,-10 9,-14l19 0 0 92 -19 0 0 -60c-6,10 -13,20 -19,30 -7,10 -13,20 -20,30l-17 0 0 -92zm92 92l0 -92 19 0 0 33c4,-1 7,-3 10,-6 4,-2 7,-5 10,-8 3,-3 5,-6 8,-9 2,-3 5,-7 7,-10l24 0c-3,4 -7,8 -10,12 -3,4 -6,8 -10,12 -3,4 -7,7 -11,10 -4,4 -8,6 -12,9 3,1 6,3 10,5 3,2 6,5 8,8 3,2 6,5 8,8 3,3 5,7 8,10 2,3 4,6 6,9 2,4 4,7 6,9l-22 0c-4,-7 -9,-13 -12,-17 -4,-5 -8,-9 -11,-12 -3,-3 -6,-6 -9,-7 -3,-2 -5,-3 -8,-4l0 40 -19 0zm90 -92l19 0 0 60c3,-5 6,-10 9,-15 3,-5 6,-10 9,-15 4,-5 7,-10 10,-16 3,-5 6,-10 9,-14l19 0 0 92 -19 0 0 -60c-6,10 -13,20 -19,30 -6,10 -13,20 -19,30l-18 0 0 -92z"/>
    <path class="fil1" d="M303 160c0,-3 -1,-6 -4,-8 -2,-2 -5,-3 -10,-3 -3,0 -6,1 -9,3 -2,2 -3,5 -3,8l-8 0c0,-3 0,-6 2,-9 2,-3 4,-5 8,-6 3,-1 6,-2 10,-2 7,0 13,1 16,4 4,4 6,8 6,13 0,3 -1,6 -3,8 -1,2 -4,4 -7,6 7,2 11,7 11,14 0,6 -2,10 -6,13 -4,4 -10,5 -17,5 -4,0 -7,-1 -11,-2 -3,-1 -6,-4 -8,-6 -1,-3 -2,-6 -2,-10l8 0c0,3 1,6 4,8 2,2 5,3 9,3 5,0 8,-1 11,-3 3,-2 4,-4 4,-8 0,-7 -5,-11 -14,-11l-7 0 0 -6 7 0c5,-1 8,-1 10,-3 2,-2 3,-5 3,-8zm47 45c-1,-1 -1,-2 -1,-5 -4,4 -8,6 -13,6 -5,0 -9,-1 -11,-4 -3,-2 -5,-5 -5,-9 0,-5 2,-9 6,-11 3,-3 8,-4 15,-4l8 0 0 -4c0,-3 -1,-5 -3,-7 -1,-1 -4,-2 -7,-2 -3,0 -5,1 -7,2 -2,2 -3,3 -3,5l-8 0c0,-2 1,-4 3,-6 1,-3 3,-4 6,-5 3,-2 6,-2 9,-2 6,0 10,1 13,4 3,2 4,6 4,11l0 21c0,4 1,7 2,10l0 0 -8 0zm-13 -6c2,0 5,0 7,-1 2,-2 4,-3 5,-5l0 -10 -7 0c-9,0 -14,3 -14,9 0,2 1,4 3,5 1,2 3,2 6,2zm52 -37c6,0 10,2 14,6 3,4 5,9 5,15l0 1c0,4 -1,8 -3,11 -1,4 -4,6 -7,8 -3,2 -7,3 -11,3 -6,0 -11,-2 -14,-6 -4,-4 -6,-10 -6,-17l0 -3c0,-10 2,-18 5,-23 4,-6 9,-9 16,-11 4,0 7,-1 8,-2 1,-1 2,-3 2,-4l7 0c0,3 -1,6 -3,8 -1,2 -4,3 -7,4l-6 1c-5,1 -8,3 -11,6 -2,3 -4,6 -4,10 4,-4 9,-7 15,-7zm-2 7c-4,0 -7,1 -9,3 -2,3 -3,7 -3,11l0 1c0,5 1,9 3,12 2,2 5,4 9,4 4,0 7,-2 10,-4 2,-3 3,-8 3,-13 0,-4 -1,-8 -3,-11 -3,-2 -6,-3 -10,-3zm58 36c-1,-1 -1,-2 -1,-5 -4,4 -8,6 -13,6 -5,0 -9,-1 -11,-4 -3,-2 -5,-5 -5,-9 0,-5 2,-9 6,-11 3,-3 8,-4 15,-4l8 0 0 -4c0,-3 -1,-5 -3,-7 -1,-1 -4,-2 -7,-2 -3,0 -5,1 -7,2 -2,2 -3,3 -3,5l-8 0c0,-2 1,-4 3,-6 1,-3 3,-4 6,-5 3,-2 6,-2 9,-2 6,0 10,1 13,4 3,2 4,6 4,11l0 21c0,4 1,7 2,10l0 0 -8 0zm-13 -6c2,0 5,0 7,-1 2,-2 4,-3 5,-5l0 -10 -7 0c-9,0 -14,3 -14,9 0,2 1,4 3,5 1,2 3,2 6,2zm61 -39l8 0 0 45 -8 0 0 -33 -21 33 -8 0 0 -45 8 0 0 33 21 -33zm2 -17c0,3 -1,6 -3,8 -2,2 -5,3 -9,3 -4,0 -7,-1 -9,-3 -3,-2 -4,-5 -4,-8l6 0c0,2 1,3 2,4 1,1 3,2 5,2 2,0 3,0 4,-2 2,-1 2,-2 2,-4l6 0zm33 43l-6 0 0 19 -8 0 0 -45 8 0 0 19 5 0 16 -19 9 0 -18 22 20 23 -10 0 -16 -19zm61 19c-1,-1 -1,-2 -1,-5 -4,4 -8,6 -13,6 -5,0 -9,-1 -11,-4 -3,-2 -5,-5 -5,-9 0,-5 2,-9 6,-11 3,-3 8,-4 15,-4l8 0 0 -4c0,-3 -1,-5 -3,-7 -2,-1 -4,-2 -7,-2 -3,0 -5,1 -7,2 -2,2 -3,3 -3,5l-8 0c0,-2 1,-4 3,-6 1,-3 3,-4 6,-5 3,-2 6,-2 9,-2 6,0 10,1 13,4 3,2 4,6 4,11l0 21c0,4 1,7 2,10l0 0 -8 0zm-13 -6c2,0 5,0 7,-1 2,-2 4,-3 5,-5l0 -10 -7 0c-9,0 -14,3 -14,9 0,2 1,4 2,5 2,2 4,2 7,2zm69 -39l0 45 -8 0 0 -39 -15 0 -1 17c-1,8 -2,14 -4,17 -2,3 -6,5 -10,5l-3 0 0 -7 2 0c2,0 4,-2 5,-4 1,-3 2,-8 2,-15l1 -19 31 0zm21 15l12 0c5,0 9,2 12,4 3,3 5,7 5,11 0,5 -2,8 -5,11 -3,3 -7,4 -12,4l-20 0 0 -45 8 0 0 15zm0 7l0 17 12 0c3,0 5,-1 7,-2 1,-2 2,-4 2,-7 0,-2 -1,-4 -2,-6 -2,-1 -4,-2 -7,-2l-12 0zm57 18c3,0 5,-1 7,-3 2,-1 4,-4 4,-6l7 0c0,3 -1,5 -2,7 -2,3 -4,5 -7,6 -3,1 -6,2 -9,2 -6,0 -11,-2 -15,-6 -3,-4 -5,-10 -5,-17l0 -1c0,-5 1,-9 2,-12 2,-4 4,-7 7,-8 3,-2 7,-3 11,-3 5,0 9,1 13,4 3,3 5,7 5,12l-7 0c0,-3 -1,-5 -4,-7 -2,-2 -4,-3 -7,-3 -4,0 -7,2 -9,4 -2,3 -3,7 -3,13l0 1c0,6 1,10 3,12 2,3 5,5 9,5zm41 -14l-5 0 0 19 -8 0 0 -45 8 0 0 19 5 0 15 -19 10 0 -18 22 19 23 -10 0 -16 -19zm62 -26l8 0 0 45 -8 0 0 -33 -21 33 -7 0 0 -45 7 0 0 33 21 -33zm50 0l8 0 0 45 -8 0 0 -33 -21 33 -7 0 0 -45 7 0 0 33 21 -33zm3 -17c0,3 -2,6 -4,8 -2,2 -5,3 -9,3 -4,0 -7,-1 -9,-3 -3,-2 -4,-5 -4,-8l7 0c0,2 0,3 1,4 1,1 3,2 5,2 2,0 3,0 5,-2 1,-1 1,-2 1,-4l7 0zm54 43l-6 0 0 19 -8 0 0 -45 8 0 0 19 5 0 15 -19 10 0 -18 22 19 23 -10 0 -15 -19zm71 -3c0,7 -2,12 -5,17 -3,4 -8,6 -13,6 -6,0 -10,-2 -13,-5l0 22 -8 0 0 -63 7 0 1 5c3,-4 7,-6 13,-6 5,0 10,2 13,6 3,4 5,10 5,17l0 1zm-8 -1c0,-5 -1,-9 -3,-12 -3,-3 -6,-5 -9,-5 -5,0 -9,2 -11,7l0 21c2,5 6,7 11,7 3,0 6,-2 9,-5 2,-3 3,-7 3,-13zm46 23c-1,-1 -1,-2 -1,-5 -4,4 -8,6 -13,6 -5,0 -8,-1 -11,-4 -3,-2 -5,-5 -5,-9 0,-5 2,-9 6,-11 3,-3 9,-4 15,-4l8 0 0 -4c0,-3 -1,-5 -3,-7 -1,-1 -4,-2 -7,-2 -3,0 -5,1 -7,2 -2,2 -3,3 -3,5l-8 0c0,-2 1,-4 3,-6 1,-3 4,-4 6,-5 3,-2 6,-2 10,-2 5,0 9,1 12,4 3,2 4,6 5,11l0 21c0,4 0,7 1,10l0 0 -8 0zm-13 -6c2,0 5,0 7,-1 2,-2 4,-3 5,-5l0 -10 -6 0c-10,0 -15,3 -15,9 0,2 1,4 3,5 1,2 3,2 6,2zm61 -39l8 0 0 45 -8 0 0 -33 -21 33 -8 0 0 -45 8 0 0 33 21 -33zm3 -17c0,3 -2,6 -4,8 -2,2 -5,3 -9,3 -4,0 -7,-1 -9,-3 -3,-2 -4,-5 -4,-8l7 0c0,2 0,3 1,4 1,1 3,2 5,2 2,0 3,0 5,-2 1,-1 1,-2 1,-4l7 0z"/>
   </g>
   <g>
    <path class="fil2" d="M120 34c48,0 86,39 86,86 0,47 -38,86 -86,86 -47,0 -86,-39 -86,-86 0,-47 39,-86 86,-86zm-36 125l73 0c1,0 2,-1 2,-3l0 0c0,-1 -1,-2 -2,-2l-73 0c-2,0 -2,1 -2,2l0 0c0,2 0,3 2,3zm56 -78l18 0c0,0 1,1 1,1l0 66c0,0 -1,1 -1,1l-18 0c0,0 -1,-1 -1,-1l0 -66c0,0 1,-1 1,-1zm-29 17l18 0c0,0 1,0 1,1l0 49c0,0 -1,1 -1,1l-18 0c0,0 -1,-1 -1,-1l0 -49c0,-1 1,-1 1,-1zm-29 23l18 0c0,0 1,0 1,0l0 27c0,0 -1,1 -1,1l-18 0c0,0 -1,-1 -1,-1l0 -27c0,0 1,0 1,0z"/>
    <path class="fil3" d="M126 0c29,1 55,13 75,31l-14 14c-16,-15 -38,-24 -61,-26l0 -19zm83 39c18,20 30,46 31,75l-19 0c-2,-23 -11,-45 -26,-61l14 -14zm31 87c-1,29 -13,55 -31,75l-14 -14c15,-16 24,-38 26,-61l19 0zm-39 83c-20,18 -46,30 -75,31l0 -19c23,-2 45,-11 61,-26l14 14zm-87 31c-29,-1 -55,-13 -75,-31l14 -14c16,15 38,24 61,26l0 19zm-83 -39c-18,-20 -30,-46 -31,-75l19 0c2,23 11,45 26,61l-14 14zm-31 -87c1,-29 13,-55 31,-75l14 14c-15,16 -24,38 -26,61l-19 0zm39 -83c20,-18 46,-30 75,-31l0 19c-23,2 -45,11 -61,26l-14 -14z"/>
   </g>
  </g>
 </g>
</svg>
