<svg width="1400" height="1000" xmlns="http://www.w3.org/2000/svg"><g><path d="M-11.543546743212147,-113.24203150768443L-151.6520427191639,817.75091154596L-41.37059256899511,142.00417808472127Z" fill="#dedede" stroke="#dedede"/><path d="M-11.543546743212147,-113.24203150768443L-41.37059256899511,142.00417808472127L115.57199085747573,-14.018300627281803Z" fill="#efefef" stroke="#efefef"/><path d="M-11.543546743212147,-113.24203150768443L115.57199085747573,-14.018300627281803L387.97369878348184,-154.18428434930922Z" fill="#eeeeee" stroke="#eeeeee"/><path d="M115.57199085747573,-14.018300627281803L-41.37059256899511,142.00417808472127L104.88557797214511,86.18495955692259Z" fill="#e7e7e7" stroke="#e7e7e7"/><path d="M115.57199085747573,-14.018300627281803L104.88557797214511,86.18495955692259L387.60466019692024,175.91958920630952Z" fill="#dfdfdf" stroke="#dfdfdf"/><path d="M115.57199085747573,-14.018300627281803L387.60466019692024,175.91958920630952L467.0468035071835,-39.40251497066825Z" fill="#dcdcdc" stroke="#dcdcdc"/><path d="M115.57199085747573,-14.018300627281803L467.0468035071835,-39.40251497066825L387.97369878348184,-154.18428434930922Z" fill="#e4e4e4" stroke="#e4e4e4"/><path d="M387.97369878348184,-154.18428434930922L467.0468035071835,-39.40251497066825L867.8995884962987,-187.0553805489244Z" fill="#d4d4d4" stroke="#d4d4d4"/><path d="M467.0468035071835,-39.40251497066825L387.60466019692024,175.91958920630952L614.0756519386117,37.680112904804474Z" fill="#d0d0d0" stroke="#d0d0d0"/><path d="M467.0468035071835,-39.40251497066825L614.0756519386117,37.680112904804474L867.8995884962987,-187.0553805489244Z" fill="#cacaca" stroke="#cacaca"/><path d="M867.8995884962987,-187.0553805489244L614.0756519386117,37.680112904804474L817.0189663603621,84.5647839447827Z" fill="#bbbbbb" stroke="#bbbbbb"/><path d="M867.8995884962987,-187.0553805489244L817.0189663603621,84.5647839447827L990.9746329661473,-162.82328977260033Z" fill="#b5b5b5" stroke="#b5b5b5"/><path d="M867.8995884962987,-187.0553805489244L990.9746329661473,-162.82328977260033L1403.3040638999491,-164.22938143384272Z" fill="#a2a2a2" stroke="#a2a2a2"/><path d="M990.9746329661473,-162.82328977260033L817.0189663603621,84.5647839447827L952.5008762646187,191.2288608240138Z" fill="#a8a8a8" stroke="#a8a8a8"/><path d="M990.9746329661473,-162.82328977260033L952.5008762646187,191.2288608240138L1255.2899094209358,-51.56013975178814Z" fill="#9d9d9d" stroke="#9d9d9d"/><path d="M990.9746329661473,-162.82328977260033L1255.2899094209358,-51.56013975178814L1403.3040638999491,-164.22938143384272Z" fill="#969696" stroke="#969696"/><path d="M1255.2899094209358,-51.56013975178814L952.5008762646187,191.2288608240138L1297.1228445861511,99.49840945719319Z" fill="#8d8d8d" stroke="#8d8d8d"/><path d="M1255.2899094209358,-51.56013975178814L1297.1228445861511,99.49840945719319L1431.2033645036886,19.55084927726881Z" fill="#828282" stroke="#828282"/><path d="M1255.2899094209358,-51.56013975178814L1431.2033645036886,19.55084927726881L1403.3040638999491,-164.22938143384272Z" fill="#858585" stroke="#858585"/><path d="M1403.3040638999491,-164.22938143384272L1431.2033645036886,19.55084927726881L1640.5121733086266,26.357845061507476Z" fill="#7b7b7b" stroke="#7b7b7b"/><path d="M1403.3040638999491,-164.22938143384272L1640.5121733086266,26.357845061507476L1710.4650166777635,-147.0450057546048Z" fill="#808080" stroke="#808080"/><path d="M1710.4650166777635,-147.0450057546048L1640.5121733086266,26.357845061507476L1719.9413465959287,475.6529519075602Z" fill="#6f6f6f" stroke="#6f6f6f"/><path d="M-41.37059256899511,142.00417808472127L-151.6520427191639,817.75091154596L-39.757154222717475,436.3383290542798Z" fill="#c9c9c9" stroke="#c9c9c9"/><path d="M-41.37059256899511,142.00417808472127L-39.757154222717475,436.3383290542798L142.92014440572495,395.96258168172136Z" fill="#d6d6d6" stroke="#d6d6d6"/><path d="M-41.37059256899511,142.00417808472127L142.92014440572495,395.96258168172136L104.88557797214511,86.18495955692259Z" fill="#dcdcdc" stroke="#dcdcdc"/><path d="M104.88557797214511,86.18495955692259L142.92014440572495,395.96258168172136L387.60466019692024,175.91958920630952Z" fill="#d4d4d4" stroke="#d4d4d4"/><path d="M387.60466019692024,175.91958920630952L142.92014440572495,395.96258168172136L292.5861222481336,429.63198886991233Z" fill="#c8c8c8" stroke="#c8c8c8"/><path d="M387.60466019692024,175.91958920630952L292.5861222481336,429.63198886991233L585.350759205433,327.45127520644394Z" fill="#c1c1c1" stroke="#c1c1c1"/><path d="M387.60466019692024,175.91958920630952L585.350759205433,327.45127520644394L614.0756519386117,37.680112904804474Z" fill="#c3c3c3" stroke="#c3c3c3"/><path d="M614.0756519386117,37.680112904804474L585.350759205433,327.45127520644394L817.0189663603621,84.5647839447827Z" fill="#b7b7b7" stroke="#b7b7b7"/><path d="M817.0189663603621,84.5647839447827L585.350759205433,327.45127520644394L740.8763077993692,372.05994024995175Z" fill="#ababab" stroke="#ababab"/><path d="M817.0189663603621,84.5647839447827L740.8763077993692,372.05994024995175L952.5008762646187,191.2288608240138Z" fill="#a3a3a3" stroke="#a3a3a3"/><path d="M952.5008762646187,191.2288608240138L740.8763077993692,372.05994024995175L963.5339389495931,416.760196201598Z" fill="#959595" stroke="#959595"/><path d="M952.5008762646187,191.2288608240138L963.5339389495931,416.760196201598L1336.219709846871,310.27289276454565Z" fill="#848484" stroke="#848484"/><path d="M952.5008762646187,191.2288608240138L1336.219709846871,310.27289276454565L1297.1228445861511,99.49840945719319Z" fill="#818181" stroke="#818181"/><path d="M1297.1228445861511,99.49840945719319L1336.219709846871,310.27289276454565L1382.6072427003674,287.0078797813295Z" fill="#717171" stroke="#717171"/><path d="M1297.1228445861511,99.49840945719319L1382.6072427003674,287.0078797813295L1431.2033645036886,19.55084927726881Z" fill="#757575" stroke="#757575"/><path d="M1431.2033645036886,19.55084927726881L1382.6072427003674,287.0078797813295L1640.5121733086266,26.357845061507476Z" fill="#707070" stroke="#707070"/><path d="M1640.5121733086266,26.357845061507476L1382.6072427003674,287.0078797813295L1600.1852756763762,349.7954244564243Z" fill="#676767" stroke="#676767"/><path d="M1640.5121733086266,26.357845061507476L1600.1852756763762,349.7954244564243L1719.9413465959287,475.6529519075602Z" fill="#636363" stroke="#636363"/><path d="M-39.757154222717475,436.3383290542798L-151.6520427191639,817.75091154596L-39.21787005375228,634.5080287060903Z" fill="#b3b3b3" stroke="#b3b3b3"/><path d="M-39.757154222717475,436.3383290542798L-39.21787005375228,634.5080287060903L132.86332405950878,471.9531331381926Z" fill="#bdbdbd" stroke="#bdbdbd"/><path d="M-39.757154222717475,436.3383290542798L132.86332405950878,471.9531331381926L142.92014440572495,395.96258168172136Z" fill="#c5c5c5" stroke="#c5c5c5"/><path d="M142.92014440572495,395.96258168172136L132.86332405950878,471.9531331381926L292.5861222481336,429.63198886991233Z" fill="#bfbfbf" stroke="#bfbfbf"/><path d="M292.5861222481336,429.63198886991233L132.86332405950878,471.9531331381926L315.1869215328124,660.8564694911049Z" fill="#b0b0b0" stroke="#b0b0b0"/><path d="M292.5861222481336,429.63198886991233L315.1869215328124,660.8564694911049L538.2650345632482,502.65076504729245Z" fill="#a7a7a7" stroke="#a7a7a7"/><path d="M292.5861222481336,429.63198886991233L538.2650345632482,502.65076504729245L585.350759205433,327.45127520644394Z" fill="#b1b1b1" stroke="#b1b1b1"/><path d="M585.350759205433,327.45127520644394L538.2650345632482,502.65076504729245L740.8763077993692,372.05994024995175Z" fill="#a5a5a5" stroke="#a5a5a5"/><path d="M740.8763077993692,372.05994024995175L538.2650345632482,502.65076504729245L825.2225108675543,573.6750090112726Z" fill="#939393" stroke="#939393"/><path d="M740.8763077993692,372.05994024995175L825.2225108675543,573.6750090112726L963.5339389495931,416.760196201598Z" fill="#888888" stroke="#888888"/><path d="M963.5339389495931,416.760196201598L825.2225108675543,573.6750090112726L1050.187642648695,547.0976945537516Z" fill="#777777" stroke="#777777"/><path d="M963.5339389495931,416.760196201598L1050.187642648695,547.0976945537516L1228.9239640764708,525.4230255960708Z" fill="#6c6c6c" stroke="#6c6c6c"/><path d="M963.5339389495931,416.760196201598L1228.9239640764708,525.4230255960708L1336.219709846871,310.27289276454565Z" fill="#6d6d6d" stroke="#6d6d6d"/><path d="M1336.219709846871,310.27289276454565L1228.9239640764708,525.4230255960708L1389.4007318047625,661.0436643238447Z" fill="#555555" stroke="#555555"/><path d="M1336.219709846871,310.27289276454565L1389.4007318047625,661.0436643238447L1600.1852756763762,349.7954244564243Z" fill="#515151" stroke="#515151"/><path d="M1336.219709846871,310.27289276454565L1600.1852756763762,349.7954244564243L1382.6072427003674,287.0078797813295Z" fill="#616161" stroke="#616161"/><path d="M1600.1852756763762,349.7954244564243L1389.4007318047625,661.0436643238447L1719.9413465959287,475.6529519075602Z" fill="#494949" stroke="#494949"/><path d="M-39.21787005375228,634.5080287060903L-151.6520427191639,817.75091154596L149.43912404421604,764.9749804263018Z" fill="#a1a1a1" stroke="#a1a1a1"/><path d="M-39.21787005375228,634.5080287060903L149.43912404421604,764.9749804263018L132.86332405950878,471.9531331381926Z" fill="#ababab" stroke="#ababab"/><path d="M132.86332405950878,471.9531331381926L149.43912404421604,764.9749804263018L315.1869215328124,660.8564694911049Z" fill="#a3a3a3" stroke="#a3a3a3"/><path d="M315.1869215328124,660.8564694911049L149.43912404421604,764.9749804263018L332.32327552020456,839.9734443404582Z" fill="#8f8f8f" stroke="#8f8f8f"/><path d="M315.1869215328124,660.8564694911049L332.32327552020456,839.9734443404582L462.2429788315168,870.3496117847988Z" fill="#858585" stroke="#858585"/><path d="M315.1869215328124,660.8564694911049L462.2429788315168,870.3496117847988L538.2650345632482,502.65076504729245Z" fill="#909090" stroke="#909090"/><path d="M538.2650345632482,502.65076504729245L462.2429788315168,870.3496117847988L725.024061720094,690.4617044955111Z" fill="#838383" stroke="#838383"/><path d="M538.2650345632482,502.65076504729245L725.024061720094,690.4617044955111L825.2225108675543,573.6750090112726Z" fill="#858585" stroke="#858585"/><path d="M825.2225108675543,573.6750090112726L725.024061720094,690.4617044955111L1038.482384542087,756.7527114232977Z" fill="#696969" stroke="#696969"/><path d="M825.2225108675543,573.6750090112726L1038.482384542087,756.7527114232977L1050.187642648695,547.0976945537516Z" fill="#656565" stroke="#656565"/><path d="M1050.187642648695,547.0976945537516L1038.482384542087,756.7527114232977L1228.9239640764708,525.4230255960708Z" fill="#5a5a5a" stroke="#5a5a5a"/><path d="M1228.9239640764708,525.4230255960708L1038.482384542087,756.7527114232977L1325.7155999232382,742.2496590681567Z" fill="#494949" stroke="#494949"/><path d="M1228.9239640764708,525.4230255960708L1325.7155999232382,742.2496590681567L1389.4007318047625,661.0436643238447Z" fill="#414141" stroke="#414141"/><path d="M1389.4007318047625,661.0436643238447L1325.7155999232382,742.2496590681567L1448.2017265840473,857.3850790900874Z" fill="#2c2c2c" stroke="#2c2c2c"/><path d="M1389.4007318047625,661.0436643238447L1448.2017265840473,857.3850790900874L1603.5446589389928,857.4950356002739Z" fill="#212121" stroke="#212121"/><path d="M1389.4007318047625,661.0436643238447L1603.5446589389928,857.4950356002739L1719.9413465959287,475.6529519075602Z" fill="#323232" stroke="#323232"/><path d="M1719.9413465959287,475.6529519075602L1603.5446589389928,857.4950356002739L1691.7037195955222,1031.390207022592Z" fill="#212121" stroke="#212121"/><path d="M-151.6520427191639,817.75091154596L-139.80658195668764,1199.5231918881684L-140.24239477010622,911.8588321683981Z" fill="#878787" stroke="#878787"/><path d="M-151.6520427191639,817.75091154596L-140.24239477010622,911.8588321683981L149.43912404421604,764.9749804263018Z" fill="#969696" stroke="#969696"/><path d="M149.43912404421604,764.9749804263018L-140.24239477010622,911.8588321683981L44.886245158085615,1048.1482940491533Z" fill="#888888" stroke="#888888"/><path d="M149.43912404421604,764.9749804263018L44.886245158085615,1048.1482940491533L266.7621569574669,937.8171937845315Z" fill="#7f7f7f" stroke="#7f7f7f"/><path d="M149.43912404421604,764.9749804263018L266.7621569574669,937.8171937845315L332.32327552020456,839.9734443404582Z" fill="#848484" stroke="#848484"/><path d="M332.32327552020456,839.9734443404582L266.7621569574669,937.8171937845315L462.2429788315168,870.3496117847988Z" fill="#797979" stroke="#797979"/><path d="M462.2429788315168,870.3496117847988L266.7621569574669,937.8171937845315L287.10828724940575,1140.856720941886Z" fill="#6d6d6d" stroke="#6d6d6d"/><path d="M462.2429788315168,870.3496117847988L287.10828724940575,1140.856720941886L631.6435167261375,969.7841708145476Z" fill="#656565" stroke="#656565"/><path d="M462.2429788315168,870.3496117847988L631.6435167261375,969.7841708145476L725.024061720094,690.4617044955111Z" fill="#6b6b6b" stroke="#6b6b6b"/><path d="M725.024061720094,690.4617044955111L631.6435167261375,969.7841708145476L756.1347521499049,1031.6416352880892Z" fill="#5a5a5a" stroke="#5a5a5a"/><path d="M725.024061720094,690.4617044955111L756.1347521499049,1031.6416352880892L1038.482384542087,756.7527114232977Z" fill="#575757" stroke="#575757"/><path d="M1038.482384542087,756.7527114232977L756.1347521499049,1031.6416352880892L1006.831377764626,991.6073401237169Z" fill="#404040" stroke="#404040"/><path d="M1038.482384542087,756.7527114232977L1006.831377764626,991.6073401237169L1309.477006722102,951.9050494072751Z" fill="#323232" stroke="#323232"/><path d="M1038.482384542087,756.7527114232977L1309.477006722102,951.9050494072751L1325.7155999232382,742.2496590681567Z" fill="#333333" stroke="#333333"/><path d="M1325.7155999232382,742.2496590681567L1309.477006722102,951.9050494072751L1448.2017265840473,857.3850790900874Z" fill="#212121" stroke="#212121"/><path d="M1448.2017265840473,857.3850790900874L1309.477006722102,951.9050494072751L1373.521703505181,1101.669625209634Z" fill="#0f0f0f" stroke="#0f0f0f"/><path d="M1448.2017265840473,857.3850790900874L1373.521703505181,1101.669625209634L1691.7037195955222,1031.390207022592Z" fill="#050505" stroke="#050505"/><path d="M1448.2017265840473,857.3850790900874L1691.7037195955222,1031.390207022592L1603.5446589389928,857.4950356002739Z" fill="#101010" stroke="#101010"/><path d="M-140.24239477010622,911.8588321683981L-139.80658195668764,1199.5231918881684L44.886245158085615,1048.1482940491533Z" fill="#7d7d7d" stroke="#7d7d7d"/><path d="M44.886245158085615,1048.1482940491533L-139.80658195668764,1199.5231918881684L35.6953744758319,1233.5478003642522Z" fill="#797979" stroke="#797979"/><path d="M44.886245158085615,1048.1482940491533L35.6953744758319,1233.5478003642522L287.10828724940575,1140.856720941886Z" fill="#727272" stroke="#727272"/><path d="M44.886245158085615,1048.1482940491533L287.10828724940575,1140.856720941886L266.7621569574669,937.8171937845315Z" fill="#6d6d6d" stroke="#6d6d6d"/><path d="M631.6435167261375,969.7841708145476L287.10828724940575,1140.856720941886L480.65204972674246,1329.909634905539Z" fill="#5f5f5f" stroke="#5f5f5f"/><path d="M631.6435167261375,969.7841708145476L480.65204972674246,1329.909634905539L703.3057191865873,1266.394943361276Z" fill="#515151" stroke="#515151"/><path d="M631.6435167261375,969.7841708145476L703.3057191865873,1266.394943361276L756.1347521499049,1031.6416352880892Z" fill="#494949" stroke="#494949"/><path d="M756.1347521499049,1031.6416352880892L703.3057191865873,1266.394943361276L958.38526644752,1246.2641663386203Z" fill="#3e3e3e" stroke="#3e3e3e"/><path d="M756.1347521499049,1031.6416352880892L958.38526644752,1246.2641663386203L1006.831377764626,991.6073401237169Z" fill="#343434" stroke="#343434"/><path d="M1006.831377764626,991.6073401237169L958.38526644752,1246.2641663386203L1219.8559581132408,1269.8961828099207Z" fill="#252525" stroke="#252525"/><path d="M1006.831377764626,991.6073401237169L1219.8559581132408,1269.8961828099207L1309.477006722102,951.9050494072751Z" fill="#1a1a1a" stroke="#1a1a1a"/><path d="M1309.477006722102,951.9050494072751L1219.8559581132408,1269.8961828099207L1373.521703505181,1101.669625209634Z" fill="#0e0e0e" stroke="#0e0e0e"/><path d="M1373.521703505181,1101.669625209634L1219.8559581132408,1269.8961828099207L1464.379704736874,1294.0080577551826Z" fill="#090909" stroke="#090909"/><path d="M1373.521703505181,1101.669625209634L1464.379704736874,1294.0080577551826L1641.882192643186,1183.656924986157Z" fill="#000000" stroke="#000000"/><path d="M1373.521703505181,1101.669625209634L1641.882192643186,1183.656924986157L1691.7037195955222,1031.390207022592Z" fill="#000000" stroke="#000000"/><path d="M-139.80658195668764,1199.5231918881684L480.65204972674246,1329.909634905539L35.6953744758319,1233.5478003642522Z" fill="#717171" stroke="#717171"/><path d="M35.6953744758319,1233.5478003642522L480.65204972674246,1329.909634905539L287.10828724940575,1140.856720941886Z" fill="#6a6a6a" stroke="#6a6a6a"/><path d="M480.65204972674246,1329.909634905539L1464.379704736874,1294.0080577551826L1219.8559581132408,1269.8961828099207Z" fill="#262626" stroke="#262626"/><path d="M480.65204972674246,1329.909634905539L1219.8559581132408,1269.8961828099207L958.38526644752,1246.2641663386203Z" fill="#363636" stroke="#363636"/><path d="M480.65204972674246,1329.909634905539L958.38526644752,1246.2641663386203L703.3057191865873,1266.394943361276Z" fill="#474747" stroke="#474747"/></g></svg>