<svg xmlns="http://www.w3.org/2000/svg" width="1920" height="1080"><path d="M19,-333L652,-307L1281,-453Z" fill="#c7c7c7" stroke="#c7c7c7" stroke-width="1.51"/><path d="M1281,-453L1827,-407L1936,-434Z" fill="#e3e3e3" stroke="#e3e3e3" stroke-width="1.51"/><path d="M1972,911L2149,1298L2242,837Z" fill="#d5d4d4" stroke="#d5d4d4" stroke-width="1.51"/><path d="M1936,-434L2020,-216L2317,-259Z" fill="#e0e0e0" stroke="#e0e0e0" stroke-width="1.51"/><path d="M2048,94L2208,183L2353,-113Z" fill="#c8c7c7" stroke="#c8c7c7" stroke-width="1.51"/><path d="M2317,-259L2020,-216L2353,-113Z" fill="#dbdada" stroke="#dbdada" stroke-width="1.51"/><path d="M2020,-216L2048,94L2353,-113Z" fill="#d1d0d0" stroke="#d1d0d0" stroke-width="1.51"/><path d="M2208,183L2303,330L2353,-113Z" fill="#c3c3c3" stroke="#c3c3c3" stroke-width="1.51"/><path d="M2149,1298L2128,1404L2356,540Z" fill="#d8d7d7" stroke="#d8d7d7" stroke-width="1.51"/><path d="M2242,837L2149,1298L2356,540Z" fill="#d5d3d3" stroke="#d5d3d3" stroke-width="1.51"/><path d="M2303,330L1941,562L2356,540Z" fill="#c7c6c6" stroke="#c7c6c6" stroke-width="1.51"/><path d="M1941,562L2242,837L2356,540Z" fill="#cccbcb" stroke="#cccbcb" stroke-width="1.51"/><path d="M2353,-113L2303,330L2356,540Z" fill="#c1c0c0" stroke="#c1c0c0" stroke-width="1.51"/><path d="M1482,1368L1123,1532L1992,1468Z" fill="#d5d5d5" stroke="#d5d5d5" stroke-width="1.51"/><path d="M1931,379L1941,562L2303,330Z" fill="#c2c1c1" stroke="#c2c1c1" stroke-width="1.51"/><path d="M2208,183L1931,379L2303,330Z" fill="#c0bfbf" stroke="#c0bfbf" stroke-width="1.51"/><path d="M1972,911L1878,1244L2149,1298Z" fill="#d6d5d5" stroke="#d6d5d5" stroke-width="1.51"/><path d="M1941,562L1972,911L2242,837Z" fill="#cecdcd" stroke="#cecdcd" stroke-width="1.51"/><path d="M2048,94L1931,379L2208,183Z" fill="#bbbbbb" stroke="#bbbbbb" stroke-width="1.51"/><path d="M1743,1346L1482,1368L1992,1468Z" fill="#d7d7d7" stroke="#d7d7d7" stroke-width="1.51"/><path d="M1992,1468L2128,1404L2149,1298Z" fill="#dedcdc" stroke="#dedcdc" stroke-width="1.51"/><path d="M1878,1244L1992,1468L2149,1298Z" fill="#dbd9d9" stroke="#dbd9d9" stroke-width="1.51"/><path d="M1941,562L1845,549L1972,911Z" fill="#c8c7c7" stroke="#c8c7c7" stroke-width="1.51"/><path d="M1936,-434L1827,-407L2020,-216Z" fill="#e1e1e1" stroke="#e1e1e1" stroke-width="1.51"/><path d="M1642,152L1830,295L2048,94Z" fill="#b9b9b9" stroke="#b9b9b9" stroke-width="1.51"/><path d="M1641,20L1642,152L2048,94Z" fill="#bebebe" stroke="#bebebe" stroke-width="1.51"/><path d="M2020,-216L1641,20L2048,94Z" fill="#c9c9c9" stroke="#c9c9c9" stroke-width="1.51"/><path d="M1830,295L1931,379L2048,94Z" fill="#bbbbbb" stroke="#bbbbbb" stroke-width="1.51"/><path d="M19,-333L575,-297L652,-307Z" fill="#c4c4c4" stroke="#c4c4c4" stroke-width="1.51"/><path d="M1734,1237L1878,1244L1972,911Z" fill="#d3d3d3" stroke="#d3d3d3" stroke-width="1.51"/><path d="M1845,549L1613,886L1972,911Z" fill="#cacaca" stroke="#cacaca" stroke-width="1.51"/><path d="M1827,-407L1641,20L2020,-216Z" fill="#d5d4d4" stroke="#d5d4d4" stroke-width="1.51"/><path d="M1541,-245L1641,20L1827,-407Z" fill="#d2d2d2" stroke="#d2d2d2" stroke-width="1.51"/><path d="M1931,379L1845,549L1941,562Z" fill="#c2c2c2" stroke="#c2c2c2" stroke-width="1.51"/><path d="M1613,886L1734,1237L1972,911Z" fill="#cfcfcf" stroke="#cfcfcf" stroke-width="1.51"/><path d="M1878,1244L1743,1346L1992,1468Z" fill="#d9d8d8" stroke="#d9d8d8" stroke-width="1.51"/><path d="M1830,295L1845,549L1931,379Z" fill="#bfbebe" stroke="#bfbebe" stroke-width="1.51"/><path d="M1734,1237L1743,1346L1878,1244Z" fill="#d6d5d5" stroke="#d6d5d5" stroke-width="1.51"/><path d="M1407,669L1459,805L1613,886Z" fill="#c5c5c5" stroke="#c5c5c5" stroke-width="1.51"/><path d="M1613,886L1588,1213L1734,1237Z" fill="#cfcfcf" stroke="#cfcfcf" stroke-width="1.51"/><path d="M1281,-453L1541,-245L1827,-407Z" fill="#dcdcdc" stroke="#dcdcdc" stroke-width="1.51"/><path d="M1407,669L1613,886L1845,549Z" fill="#c4c4c4" stroke="#c4c4c4" stroke-width="1.51"/><path d="M1830,295L1446,334L1845,549Z" fill="#bbbbbb" stroke="#bbbbbb" stroke-width="1.51"/><path d="M1446,334L1407,669L1845,549Z" fill="#bdbdbd" stroke="#bdbdbd" stroke-width="1.51"/><path d="M1541,-245L1542,-41L1641,20Z" fill="#c8c8c8" stroke="#c8c8c8" stroke-width="1.51"/><path d="M1642,152L1446,334L1830,295Z" fill="#b6b6b6" stroke="#b6b6b6" stroke-width="1.51"/><path d="M19,-333L296,-287L575,-297Z" fill="#cacaca" stroke="#cacaca" stroke-width="1.51"/><path d="M1734,1237L1588,1213L1743,1346Z" fill="#d4d3d3" stroke="#d4d3d3" stroke-width="1.51"/><path d="M1588,1213L1482,1368L1743,1346Z" fill="#d3d2d2" stroke="#d3d2d2" stroke-width="1.51"/><path d="M1338,1216L1588,1213L1613,886Z" fill="#cdcdcd" stroke="#cdcdcd" stroke-width="1.51"/><path d="M1459,805L1338,1216L1613,886Z" fill="#c9c9c9" stroke="#c9c9c9" stroke-width="1.51"/><path d="M1542,-41L1503,164L1641,20Z" fill="#bebebe" stroke="#bebebe" stroke-width="1.51"/><path d="M1641,20L1503,164L1642,152Z" fill="#bab9b9" stroke="#bab9b9" stroke-width="1.51"/><path d="M1503,164L1446,334L1642,152Z" fill="#b3b3b3" stroke="#b3b3b3" stroke-width="1.51"/><path d="M1338,1216L1482,1368L1588,1213Z" fill="#d0cfcf" stroke="#d0cfcf" stroke-width="1.51"/><path d="M1208,849L1338,1216L1459,805Z" fill="#c6c6c6" stroke="#c6c6c6" stroke-width="1.51"/><path d="M1281,-453L1181,-180L1541,-245Z" fill="#d3d3d3" stroke="#d3d3d3" stroke-width="1.51"/><path d="M1171,164L1503,164L1542,-41Z" fill="#b8b8b8" stroke="#b8b8b8" stroke-width="1.51"/><path d="M1181,-180L1171,164L1542,-41Z" fill="#bdbdbd" stroke="#bdbdbd" stroke-width="1.51"/><path d="M1541,-245L1181,-180L1542,-41Z" fill="#cacaca" stroke="#cacaca" stroke-width="1.51"/><path d="M1177,484L1407,669L1446,334Z" fill="#b8b8b8" stroke="#b8b8b8" stroke-width="1.51"/><path d="M1171,164L1446,334L1503,164Z" fill="#b0b0b0" stroke="#b0b0b0" stroke-width="1.51"/><path d="M1338,1216L1123,1532L1482,1368Z" fill="#cfcfcf" stroke="#cfcfcf" stroke-width="1.51"/><path d="M1407,669L1208,849L1459,805Z" fill="#c2c2c2" stroke="#c2c2c2" stroke-width="1.51"/><path d="M1171,164L1177,484L1446,334Z" fill="#b1b1b1" stroke="#b1b1b1" stroke-width="1.51"/><path d="M722,1409L284,1557L1123,1532Z" fill="#c4c3c3" stroke="#c4c3c3" stroke-width="1.51"/><path d="M1128,589L1208,849L1407,669Z" fill="#bcbcbc" stroke="#bcbcbc" stroke-width="1.51"/><path d="M1177,484L1128,589L1407,669Z" fill="#b8b8b8" stroke="#b8b8b8" stroke-width="1.51"/><path d="M1080,-237L1181,-180L1281,-453Z" fill="#cecece" stroke="#cecece" stroke-width="1.51"/><path d="M1011,1308L1123,1532L1338,1216Z" fill="#cbcaca" stroke="#cbcaca" stroke-width="1.51"/><path d="M1208,849L961,1111L1338,1216Z" fill="#c5c5c5" stroke="#c5c5c5" stroke-width="1.51"/><path d="M961,1111L1011,1308L1338,1216Z" fill="#c7c6c6" stroke="#c7c6c6" stroke-width="1.51"/><path d="M1015,147L1171,164L1181,-180Z" fill="#b4b4b4" stroke="#b4b4b4" stroke-width="1.51"/><path d="M926,-57L1015,147L1181,-180Z" fill="#b8b8b8" stroke="#b8b8b8" stroke-width="1.51"/><path d="M652,-307L1080,-237L1281,-453Z" fill="#cecece" stroke="#cecece" stroke-width="1.51"/><path d="M1015,147L864,513L1177,484Z" fill="#adadad" stroke="#adadad" stroke-width="1.51"/><path d="M1171,164L1015,147L1177,484Z" fill="#ababab" stroke="#ababab" stroke-width="1.51"/><path d="M1080,-237L926,-57L1181,-180Z" fill="#c2c2c2" stroke="#c2c2c2" stroke-width="1.51"/><path d="M859,915L961,1111L1208,849Z" fill="#bfbebe" stroke="#bfbebe" stroke-width="1.51"/><path d="M915,794L859,915L1208,849Z" fill="#bbbbbb" stroke="#bbbbbb" stroke-width="1.51"/><path d="M1128,589L915,794L1208,849Z" fill="#bababa" stroke="#bababa" stroke-width="1.51"/><path d="M864,513L1128,589L1177,484Z" fill="#b2b2b2" stroke="#b2b2b2" stroke-width="1.51"/><path d="M775,287L864,513L1015,147Z" fill="#a7a7a7" stroke="#a7a7a7" stroke-width="1.51"/><path d="M864,513L915,794L1128,589Z" fill="#b4b4b4" stroke="#b4b4b4" stroke-width="1.51"/><path d="M1011,1308L722,1409L1123,1532Z" fill="#c7c7c7" stroke="#c7c7c7" stroke-width="1.51"/><path d="M-38,1424L-280,1375L284,1557Z" fill="#d8d7d7" stroke="#d8d7d7" stroke-width="1.51"/><path d="M717,-163L926,-57L1080,-237Z" fill="#bebebe" stroke="#bebebe" stroke-width="1.51"/><path d="M652,-307L717,-163L1080,-237Z" fill="#c2c2c2" stroke="#c2c2c2" stroke-width="1.51"/><path d="M961,1111L819,1165L1011,1308Z" fill="#c2c1c1" stroke="#c2c1c1" stroke-width="1.51"/><path d="M926,-57L775,287L1015,147Z" fill="#a9a9a9" stroke="#a9a9a9" stroke-width="1.51"/><path d="M819,1165L722,1409L1011,1308Z" fill="#c3c2c2" stroke="#c3c2c2" stroke-width="1.51"/><path d="M517,75L775,287L926,-57Z" fill="#a7a7a7" stroke="#a7a7a7" stroke-width="1.51"/><path d="M859,915L819,1165L961,1111Z" fill="#bebebe" stroke="#bebebe" stroke-width="1.51"/><path d="M517,75L639,271L775,287Z" fill="#9f9f9f" stroke="#9f9f9f" stroke-width="1.51"/><path d="M864,513L608,566L915,794Z" fill="#afafaf" stroke="#afafaf" stroke-width="1.51"/><path d="M608,566L641,827L915,794Z" fill="#b1b1b1" stroke="#b1b1b1" stroke-width="1.51"/><path d="M717,-163L517,75L926,-57Z" fill="#b2b2b2" stroke="#b2b2b2" stroke-width="1.51"/><path d="M641,827L859,915L915,794Z" fill="#b7b7b7" stroke="#b7b7b7" stroke-width="1.51"/><path d="M559,1054L819,1165L859,915Z" fill="#bababa" stroke="#bababa" stroke-width="1.51"/><path d="M641,827L559,1054L859,915Z" fill="#b6b6b6" stroke="#b6b6b6" stroke-width="1.51"/><path d="M775,287L608,566L864,513Z" fill="#a9a9a9" stroke="#a9a9a9" stroke-width="1.51"/><path d="M639,271L608,566L775,287Z" fill="#a4a4a4" stroke="#a4a4a4" stroke-width="1.51"/><path d="M559,1054L722,1409L819,1165Z" fill="#bdbdbd" stroke="#bdbdbd" stroke-width="1.51"/><path d="M365,1390L284,1557L722,1409Z" fill="#bfbebe" stroke="#bfbebe" stroke-width="1.51"/><path d="M652,-307L575,-297L717,-163Z" fill="#bfbfbf" stroke="#bfbfbf" stroke-width="1.51"/><path d="M575,-297L517,75L717,-163Z" fill="#b5b5b5" stroke="#b5b5b5" stroke-width="1.51"/><path d="M559,1054L365,1390L722,1409Z" fill="#bbbbbb" stroke="#bbbbbb" stroke-width="1.51"/><path d="M323,-6L517,75L575,-297Z" fill="#afafaf" stroke="#afafaf" stroke-width="1.51"/><path d="M375,434L608,566L639,271Z" fill="#a3a3a3" stroke="#a3a3a3" stroke-width="1.51"/><path d="M337,826L559,1054L641,827Z" fill="#b2b2b2" stroke="#b2b2b2" stroke-width="1.51"/><path d="M608,566L364,701L641,827Z" fill="#acacac" stroke="#acacac" stroke-width="1.51"/><path d="M364,701L337,826L641,827Z" fill="#b0b0b0" stroke="#b0b0b0" stroke-width="1.51"/><path d="M251,1197L365,1390L559,1054Z" fill="#bdbdbd" stroke="#bdbdbd" stroke-width="1.51"/><path d="M517,75L375,434L639,271Z" fill="#9d9d9d" stroke="#9d9d9d" stroke-width="1.51"/><path d="M296,-287L323,-6L575,-297Z" fill="#bcbcbc" stroke="#bcbcbc" stroke-width="1.51"/><path d="M375,434L364,701L608,566Z" fill="#a8a8a8" stroke="#a8a8a8" stroke-width="1.51"/><path d="M323,-6L375,434L517,75Z" fill="#a2a2a2" stroke="#a2a2a2" stroke-width="1.51"/><path d="M337,826L251,1197L559,1054Z" fill="#bab9b9" stroke="#bab9b9" stroke-width="1.51"/><path d="M323,-6L75,132L375,434Z" fill="#a8a8a8" stroke="#a8a8a8" stroke-width="1.51"/><path d="M296,-287L139,-150L323,-6Z" fill="#c0c0c0" stroke="#c0c0c0" stroke-width="1.51"/><path d="M83,889L251,1197L337,826Z" fill="#c1c1c1" stroke="#c1c1c1" stroke-width="1.51"/><path d="M153,485L135,609L364,701Z" fill="#b6b6b6" stroke="#b6b6b6" stroke-width="1.51"/><path d="M31,211L153,485L375,434Z" fill="#b0b0b0" stroke="#b0b0b0" stroke-width="1.51"/><path d="M75,132L31,211L375,434Z" fill="#aeaeae" stroke="#aeaeae" stroke-width="1.51"/><path d="M153,485L364,701L375,434Z" fill="#b0b0b0" stroke="#b0b0b0" stroke-width="1.51"/><path d="M135,609L337,826L364,701Z" fill="#b6b6b6" stroke="#b6b6b6" stroke-width="1.51"/><path d="M-38,1424L284,1557L365,1390Z" fill="#cdcccc" stroke="#cdcccc" stroke-width="1.51"/><path d="M251,1197L-38,1424L365,1390Z" fill="#cbcaca" stroke="#cbcaca" stroke-width="1.51"/><path d="M83,889L3,983L251,1197Z" fill="#c8c8c8" stroke="#c8c8c8" stroke-width="1.51"/><path d="M135,609L83,889L337,826Z" fill="#bdbdbd" stroke="#bdbdbd" stroke-width="1.51"/><path d="M139,-150L75,132L323,-6Z" fill="#bababa" stroke="#bababa" stroke-width="1.51"/><path d="M31,211L23,419L153,485Z" fill="#b6b6b6" stroke="#b6b6b6" stroke-width="1.51"/><path d="M19,-333L139,-150L296,-287Z" fill="#cdcdcd" stroke="#cdcdcd" stroke-width="1.51"/><path d="M3,983L-94,1208L251,1197Z" fill="#cdcdcd" stroke="#cdcdcd" stroke-width="1.51"/><path d="M-94,1208L-38,1424L251,1197Z" fill="#d1d1d1" stroke="#d1d1d1" stroke-width="1.51"/><path d="M8,602L83,889L135,609Z" fill="#c0c0c0" stroke="#c0c0c0" stroke-width="1.51"/><path d="M-94,-115L75,132L139,-150Z" fill="#c4c4c4" stroke="#c4c4c4" stroke-width="1.51"/><path d="M8,602L135,609L153,485Z" fill="#bbbbbb" stroke="#bbbbbb" stroke-width="1.51"/><path d="M23,419L8,602L153,485Z" fill="#bbbbbb" stroke="#bbbbbb" stroke-width="1.51"/><path d="M19,-333L-94,-115L139,-150Z" fill="#d0d0d0" stroke="#d0d0d0" stroke-width="1.51"/><path d="M8,602L-259,832L83,889Z" fill="#cacaca" stroke="#cacaca" stroke-width="1.51"/><path d="M-259,832L3,983L83,889Z" fill="#cecece" stroke="#cecece" stroke-width="1.51"/><path d="M-291,148L31,211L75,132Z" fill="#bababa" stroke="#bababa" stroke-width="1.51"/><path d="M-94,-115L-291,148L75,132Z" fill="#c5c5c5" stroke="#c5c5c5" stroke-width="1.51"/><path d="M-264,-232L-94,-115L19,-333Z" fill="#dadada" stroke="#dadada" stroke-width="1.51"/><path d="M-230,460L8,602L23,419Z" fill="#c2c2c2" stroke="#c2c2c2" stroke-width="1.51"/><path d="M-230,460L23,419L31,211Z" fill="#bdbdbd" stroke="#bdbdbd" stroke-width="1.51"/><path d="M-291,148L-230,460L31,211Z" fill="#c0c0c0" stroke="#c0c0c0" stroke-width="1.51"/><path d="M-263,-82L-291,148L-94,-115Z" fill="#d0d0d0" stroke="#d0d0d0" stroke-width="1.51"/><path d="M-347,644L-259,832L8,602Z" fill="#cfcfcf" stroke="#cfcfcf" stroke-width="1.51"/><path d="M-262,1201L-94,1208L3,983Z" fill="#d6d6d6" stroke="#d6d6d6" stroke-width="1.51"/><path d="M-230,460L-347,644L8,602Z" fill="#cbcbcb" stroke="#cbcbcb" stroke-width="1.51"/><path d="M-259,832L-262,1201L3,983Z" fill="#d7d6d6" stroke="#d7d6d6" stroke-width="1.51"/><path d="M-94,1208L-280,1375L-38,1424Z" fill="#dddbdb" stroke="#dddbdb" stroke-width="1.51"/><path d="M-264,-232L-263,-82L-94,-115Z" fill="#d8d8d8" stroke="#d8d8d8" stroke-width="1.51"/><path d="M-262,1201L-280,1375L-94,1208Z" fill="#dfdede" stroke="#dfdede" stroke-width="1.51"/><path d="M-291,148L-347,644L-230,460Z" fill="#cbcbcb" stroke="#cbcbcb" stroke-width="1.51"/><path d="M-347,644L-291,148L-264,-232Z" fill="#c5c5c5" stroke="#c5c5c5" stroke-width="1.51"/><path d="M-347,644L-262,1201L-259,832Z" fill="#dbdbdb" stroke="#dbdbdb" stroke-width="1.51"/><path d="M-264,-232L-291,148L-263,-82Z" fill="#d5d5d5" stroke="#d5d5d5" stroke-width="1.51"/><path d="M-347,644L-280,1375L-262,1201Z" fill="#dfdfdf" stroke="#dfdfdf" stroke-width="1.51"/></svg>